<?xml version="1.0" encoding="utf-8"?>
<svg version="1.1" id="Layer_2" xmlns="http://www.w3.org/2000/svg" xmlns:xlink="http://www.w3.org/1999/xlink" x="0px" y="0px"
	 width="70px" height="70px" viewBox="861 861 70 70" enable-background="new 861 861 70 70" xml:space="preserve">
    <path fill="#FFFFFF" d="M888.324,908.475c0.533,0,0.986-0.188,1.359-0.561l4.158-4.158c0.374-0.372,0.56-0.826,0.56-1.359
	c0-0.56-0.213-1.039-0.641-1.438c-0.039,0.04-0.163,0.166-0.369,0.38c-0.206,0.213-0.35,0.355-0.43,0.43
	c-0.08,0.071-0.206,0.172-0.38,0.299c-0.173,0.126-0.343,0.214-0.51,0.261c-0.166,0.047-0.35,0.069-0.549,0.069
	c-0.533,0-0.986-0.187-1.36-0.56c-0.373-0.374-0.56-0.826-0.56-1.358c0-0.201,0.024-0.385,0.07-0.552
	c0.047-0.165,0.133-0.335,0.26-0.51c0.126-0.172,0.226-0.299,0.3-0.379c0.073-0.079,0.216-0.224,0.43-0.43
	c0.213-0.207,0.34-0.329,0.379-0.37c-0.413-0.439-0.899-0.659-1.458-0.659c-0.533,0-0.986,0.187-1.359,0.56l-4.139,4.118
	c-0.359,0.36-0.54,0.813-0.54,1.359c0,0.533,0.174,0.986,0.52,1.359l2.918,2.938C887.357,908.287,887.804,908.475,888.324,908.475z
	 M902.416,894.421c0.533,0,0.986-0.187,1.361-0.56l4.139-4.118c0.371-0.373,0.559-0.827,0.559-1.359c0-0.52-0.18-0.972-0.539-1.359
	l-2.92-2.939c-0.373-0.373-0.82-0.559-1.34-0.559c-0.533,0-0.986,0.187-1.359,0.559l-4.156,4.158
	c-0.361,0.36-0.541,0.813-0.541,1.359c0,0.56,0.207,1.04,0.619,1.439c0.041-0.04,0.164-0.167,0.371-0.379
	c0.205-0.213,0.35-0.357,0.43-0.431c0.08-0.073,0.207-0.173,0.379-0.299c0.174-0.127,0.344-0.213,0.51-0.26
	c0.166-0.046,0.35-0.07,0.551-0.07c0.533,0,0.984,0.187,1.359,0.56c0.373,0.373,0.559,0.826,0.559,1.359
	c0,0.2-0.023,0.383-0.068,0.549c-0.047,0.167-0.135,0.337-0.262,0.51c-0.127,0.174-0.227,0.3-0.299,0.38
	c-0.074,0.08-0.217,0.224-0.43,0.43c-0.213,0.207-0.34,0.33-0.381,0.371C901.371,894.201,901.857,894.421,902.416,894.421z
	 M888.324,912.312c-1.599,0-2.951-0.566-4.058-1.699l-2.918-2.939c-1.106-1.105-1.659-2.459-1.659-4.058
	c0-1.612,0.566-2.972,1.699-4.078l4.138-4.118c1.106-1.106,2.458-1.659,4.059-1.659c1.639,0,3.031,0.586,4.177,1.759l1.76-1.759
	c-1.173-1.146-1.76-2.532-1.76-4.159c0-1.599,0.561-2.958,1.68-4.078l4.157-4.158c1.121-1.12,2.48-1.679,4.078-1.679
	c1.6,0,2.953,0.566,4.059,1.699l2.92,2.938c1.105,1.106,1.658,2.459,1.658,4.058c0,1.613-0.566,2.972-1.699,4.078l-4.139,4.118
	c-1.105,1.107-2.459,1.659-4.059,1.659c-1.637,0-3.031-0.586-4.178-1.759l-1.759,1.759c1.173,1.146,1.759,2.533,1.759,4.158
	c0,1.6-0.559,2.959-1.679,4.078l-4.158,4.157C891.283,911.752,889.923,912.312,888.324,912.312z"/>
</svg>
