<?xml version="1.0" encoding="utf-8"?>
<svg version="1.1" id="Capa_1" xmlns="http://www.w3.org/2000/svg" xmlns:xlink="http://www.w3.org/1999/xlink" x="0px" y="0px"
	 width="70px" height="70px" viewBox="221 221 70 70" enable-background="new 221 221 70 70" xml:space="preserve">
<g>
    <path fill="#FFFFFF" d="M268.143,244.21h-24.284c-1.741,0-3.158,1.416-3.158,3.157v18.099c0,1.742,1.417,3.158,3.158,3.158
        h24.284c1.738,0,3.156-1.416,3.156-3.158v-18.099C271.299,245.626,269.881,244.21,268.143,244.21z M267.102,247.17l-10.379,7.233
        c-0.425,0.337-1.021,0.337-1.446,0l-10.377-7.233H267.102z M268.027,264.863c0,0.459-0.373,0.83-0.83,0.83h-22.644
        c-0.459,0-0.831-0.371-0.831-0.83v-14.847l10.109,6.966c0.614,0.486,1.384,0.756,2.169,0.756c0.785,0,1.553-0.27,2.168-0.756
        l9.861-6.883v14.764H268.027z"/>
</g>
</svg>
