<?xml version="1.0" encoding="utf-8"?>
<svg version="1.1" id="Capa_1" xmlns="http://www.w3.org/2000/svg" xmlns:xlink="http://www.w3.org/1999/xlink" x="0px" y="0px"
	 width="70px" height="70px" viewBox="221 221 70 70" enable-background="new 221 221 70 70" xml:space="preserve">
    <path id="Facebook" fill="#FFFFFF" d="M252.278,249.155c0,0.691,0,3.779,0,3.779h-2.768v4.621h2.768v13.73h5.688v-13.73h3.817
	c0,0,0.354-2.215,0.529-4.638c-0.496,0-4.326,0-4.326,0s0-2.688,0-3.16c0-0.472,0.62-1.106,1.233-1.106c0.612,0,1.903,0,3.098,0
	c0-0.63,0-2.803,0-4.811c-1.597,0-3.411,0-4.212,0C252.138,243.839,252.278,248.465,252.278,249.155z"/>
</svg>
