<?xml version="1.0" encoding="utf-8"?>
<svg version="1.1" xmlns="http://www.w3.org/2000/svg" xmlns:xlink="http://www.w3.org/1999/xlink" x="0px" y="0px" width="70px"
	 height="70px" viewBox="0 0 70 70" enable-background="new 0 0 70 70" xml:space="preserve">
<g>
    <path fill="#FFFFFF" d="M49.818,26.316c-1.104,0.496-2.302,0.838-3.554,0.991c1.278-0.771,2.251-1.989,2.717-3.438
		c-1.197,0.712-2.521,1.235-3.938,1.515c-1.128-1.195-2.744-1.945-4.523-1.94c-3.419,0.011-6.185,2.795-6.175,6.214
		c0.002,0.488,0.062,0.957,0.165,1.41c-5.153-0.244-9.721-2.69-12.793-6.431c-0.532,0.915-0.833,1.985-0.829,3.12
		c0.006,2.147,1.109,4.043,2.772,5.141c-1.015-0.021-1.965-0.304-2.803-0.765l0,0.077c0.01,3.003,2.155,5.504,4.986,6.064
		c-0.517,0.14-1.068,0.217-1.629,0.219c-0.397,0.001-0.784-0.034-1.171-0.107c0.799,2.456,3.09,4.238,5.801,4.283
		c-2.117,1.667-4.787,2.662-7.688,2.672c-0.498,0.001-0.987-0.027-1.475-0.079c2.752,1.752,6.008,2.763,9.509,2.753
		C40.58,47.976,46.78,38.52,46.754,30.336l-0.021-0.801C47.945,28.655,48.992,27.564,49.818,26.316L49.818,26.316z"/>
</g>
</svg>
